# xmcd
#
# Track frame offsets: 
#        150
#        18738
#        32785
#        47415
#        66113
#        83183
#        97103
#        114552
#        129160
#        145905
#        160673
#        177690
#        195158
#        210385
#        226883
#        243640
#        255745
#        273333
#        293210
#        307503
#
# Disc length: 4328 seconds
#
# Revision: 3
# Processed by: cddbd v1.5.2PL0 Copyright (c) Steve Scherf et al.
# Submitted via: ExactAudioCopy v0.99pb5
#
DISCID=1110e614
DTITLE=Die Flippers - Singles 1980-1989 (Volume 2) - CD 1
DYEAR=2007
DGENRE=Schlager
TTITLE0=Ich glaub', dass Liebe mehr ist
TTITLE1=Hey, Jamaica Mama
TTITLE2=Immer nur träumen
TTITLE3=Weiße Lady, goodbye
TTITLE4=Die Nacht der tausend Rosen
TTITLE5=Himalaya
TTITLE6=Jackie
TTITLE7=Die Zeit ist reif
TTITLE8=Ein kleines Hotel bei Cuxhaven
TTITLE9=Liebst du mich noch so wie früher
TTITLE10=Nein, nein, ich bin lieber frei
TTITLE11=Das schwarze Pony
TTITLE12=Nimm den ersten Zug
TTITLE13=Ich werde dich im Leben nicht vergessen
TTITLE14=Ich kann den anderen in Deinen Augen sehen
TTITLE15=Der Wind hinter mir
TTITLE16=Maria La Catalania
TTITLE17=Schenk mir deine Liebe
TTITLE18=Hab ich dich verloren
TTITLE19=Angelina
EXTD=
EXTT0=
EXTT1=
EXTT2=
EXTT3=
EXTT4=
EXTT5=
EXTT6=
EXTT7=
EXTT8=
EXTT9=
EXTT10=
EXTT11=
EXTT12=
EXTT13=
EXTT14=
EXTT15=
EXTT16=
EXTT17=
EXTT18=
EXTT19=
PLAYORDER=
